<svg xmlns="http://www.w3.org/2000/svg" width="274.183" height="120" viewBox="0 0 274.183 120">
  <g id="Сгруппировать_5" data-name="Сгруппировать 5" transform="translate(-49.426 -96.461)">
    <path id="Контур_1" data-name="Контур 1" d="M310.054,122.477a7.186,7.186,0,0,0,.539-8.276c-2.1-3.876-1.788-7.447,1.3-10.78,1.639-1.768,2.692-3.9,1.976-6.487a1.7,1.7,0,0,1,.006-.473,2.954,2.954,0,0,1,.443.312,6.837,6.837,0,0,1,1.754,7.8,9.365,9.365,0,0,0,1.184,9.726,11.631,11.631,0,0,1,2.422,7.31c-.032.942-.125,1.671-1.489,1.419-1.508-.279-3.318.3-2.243-2.544a6.032,6.032,0,0,0-1.339-5.81c-2.248-2.742-2.817-5.56-1.243-8.783a3.244,3.244,0,0,0,.127-1.03,9.2,9.2,0,0,0-.646.713c-2.109,2.863-2.2,4.489-.326,7.544,1.034,1.69,3.716,2.678,2.355,8.763a7.61,7.61,0,0,1-.262.783,2.486,2.486,0,0,1-1.122.2c-1.035.044-2.07.063-3.1.2-.535.07-.651-.147-.335-.59" transform="translate(-205.357 0)" fill="#b48a35"/>
    <path id="Контур_2" data-name="Контур 2" d="M314.539,568.829c.778-2.743-.5-4.906-2.188-6.751-2.9-3.178-3.127-6.56-1.21-10.213,1.612-3.073,1.8-5.982-.6-8.746a1.144,1.144,0,0,1-.133-.285,2.6,2.6,0,0,1,.393-.029c1.322.1,2.643.218,3.967.3.754.044.647.64.737,1.09.628,3.126-.742,5.692-2.272,8.225-2.078,3.443-1.941,5.233.571,8.319a4.157,4.157,0,0,0,.336.329,1.49,1.49,0,0,0,.059-.523,15.576,15.576,0,0,0-.649-2.154,5.581,5.581,0,0,1,.865-5.954c2.1-2.749,3.158-5.676,1.693-9.09a1.283,1.283,0,0,1-.049-.318,34.607,34.607,0,0,1,3.608-.295c.561.007.448.745.493,1.164a10.4,10.4,0,0,1-2.189,7.356,9.664,9.664,0,0,0-1.276,10.111c1.225,2.982.264,5.612-1.971,7.816-.313.017-.271-.154-.183-.349" transform="translate(-205.87 -352.719)" fill="#b48a35"/>
    <path id="Контур_3" data-name="Контур 3" d="M74.138,361.537c1-.071,1.415.317,1.379,1.4a32.559,32.559,0,0,0,.245,3.562c-.955-.482-1.905-.974-2.869-1.438a7.011,7.011,0,0,0-.933-.3,3.332,3.332,0,0,0-1.991-.005c-2.255.631-4.258,2-6.626,2.3a8.106,8.106,0,0,1-2.548.005c-1.806-.322-3.066-1.59-4.449-2.629-1.949-1.463-3.926-2.757-6.536-1.93a1.028,1.028,0,0,1-.384-.037,2.367,2.367,0,0,1,.3-.461c2.22-2.1,4.83-2.978,7.685-1.745,3.732,1.611,6.982,1,10.186-1.318a10.132,10.132,0,0,1,6.683-2.086c1.133.072,1.7.242,1.513,1.8-.226,1.9-.5,2.425-2.5,1.754-2.145-.72-4.288.174-5.959,1.55-2.6,2.142-5.254,2.642-8.279,1.134a4.622,4.622,0,0,0-1.209-.238c-.091-.112-.128-.019-.172.046,3.692,2.954,4.883,3.035,8.915.686a12.185,12.185,0,0,1,5.018-2.046,7.9,7.9,0,0,1,2.533,0" transform="translate(0 -205.788)" fill="#b48a35"/>
    <path id="Контур_4" data-name="Контур 4" d="M506.626,363.9a21.706,21.706,0,0,0-5,2.551,12.088,12.088,0,0,1-5.37,1.8c-1.436.1-2.789.211-2.3-2.079.273-1.277-.082-2.421,2-1.566a5.809,5.809,0,0,0,5.932-1.2c3.037-2.574,6.144-2.8,9.562-1.066.413.18.48.162.448-.123-2.907-2.729-5.08-2.944-8.48-.907-1.678,1.006-3.342,2.078-5.373,2.24a7.854,7.854,0,0,1-2.41-.006c-.924.027-1.563-.135-1.5-1.356a31.326,31.326,0,0,0-.205-3.635c.984.5,1.964,1.016,2.956,1.506a5.133,5.133,0,0,0,.777.245,3.379,3.379,0,0,0,2.154.006c1.727-.654,3.448-1.326,5.182-1.959a6.621,6.621,0,0,1,6.762,1.158c2.4,1.884,4.689,4.155,8.2,3.193.083-.023.192.046.288.072a3.058,3.058,0,0,1-.333.445A7.1,7.1,0,0,1,512.422,365c-1.152-.375-2.312-.725-3.468-1.087a4.893,4.893,0,0,0-2.328-.014" transform="translate(-351.263 -206.627)" fill="#b48a35"/>
    <path id="Контур_5" data-name="Контур 5" d="M446.8,203.085c1.415-.259,2.157-1.34,2.917-2.406a3.569,3.569,0,0,1,.518-.488,3.036,3.036,0,0,1,.025.708c-.5,2.5-1.616,4.544-4.09,5.581a8.349,8.349,0,0,0-4.895,5.107,19.132,19.132,0,0,1-2.759,5.017c-.609.809-1.054,1.363-1.927.13-.741-1.048-2.115-1.581-.051-2.883,1.576-.994,2.352-2.969,3.159-4.72a1.5,1.5,0,0,0,.067-.383,1.744,1.744,0,0,0-.349.14,5.589,5.589,0,0,0-2.081,2.427,8.992,8.992,0,0,1-.7,1.414c-.9,1.361-1.813,2.446-3.345.557a17.754,17.754,0,0,0-2.519-2.161c.921-.271,1.849-.52,2.761-.819,1.96-.642,2.9-2.41,4.129-3.852,1.086-1.271,2.192-2.52,3.951-2.846a15.375,15.375,0,0,1,3.184-.248,7.085,7.085,0,0,0,2.006-.275" transform="translate(-301.403 -81.985)" fill="#b48a35"/>
    <path id="Контур_6" data-name="Контур 6" d="M227.421,526.081a2.974,2.974,0,0,0,.668-.465c1.256-1.532,2.725-1.364,4.251-.539.851.46-.027.745-.213.913-2.448,2.2-5.161,4.126-6.721,7.185-1.22,2.393-2.293,4.91-4.459,6.661a5.179,5.179,0,0,1-2.44,1.288c.368-.7.709-1.417,1.111-2.1,2.072-3.511,1.973-7.533,2.611-11.371a7.741,7.741,0,0,1,3.352-5.247c.871-.607,1.777.526,2.639.9.5.218-.057.672-.173.989-.219.6-.525,1.159-.794,1.736.025.134.094.1.17.046" transform="translate(-133.636 -336.518)" fill="#b48a35"/>
    <path id="Контур_7" data-name="Контур 7" d="M178.335,209.125a4.888,4.888,0,0,0,2.479,2.223c2.118,1.064,2.23,1.675.668,3.336-.853.907-1.856,3.132-2.173-.333-.143-1.569-1.537-2.455-2.679-3.371a6.556,6.556,0,0,1-2.748-6.007c.175-1.891-.2-3.549-1.978-4.6-.134-.079-.194-.286-.289-.433a2.662,2.662,0,0,1,.487.03c1.992.487,3.709,1.367,4.455,3.453a7.18,7.18,0,0,0,4.763,4.609,19.866,19.866,0,0,1,3.657,1.92c.677.406,1.024.834.08,1.571-1.122.875-1.846,1.864-3.005-.063-.725-1.2-2.209-1.8-3.524-2.4-.121-.138-.145,0-.192.069" transform="translate(-96.575 -81.788)" fill="#b48a35"/>
    <path id="Контур_8" data-name="Контур 8" d="M440.894,484.45a1.935,1.935,0,0,1,.192.249c.993,1.834,2.812,2.6,4.509,3.511a1.58,1.58,0,0,0,.449.09c-.074-.142-.14-.288-.222-.424-.746-1.236-2.157-1.489-3.241-2.225-1-.68-1.814-1.432-.392-2.507.923-.7,1.983-4.138,2.675.168a4.147,4.147,0,0,0,2.118,2.476c2.3,1.566,3.865,3.513,3.674,6.544a4.169,4.169,0,0,0,2.25,4.3c.15.078.239.274.357.415a3.393,3.393,0,0,1-.552,0,5.844,5.844,0,0,1-4.837-3.575,6.45,6.45,0,0,0-3.976-3.76,18.636,18.636,0,0,1-3.186-1.592c-2.39-1.409-2.382-1.969-.044-3.488.069-.045.131-.1.227-.175" transform="translate(-307.842 -304.073)" fill="#b48a35"/>
    <path id="Контур_9" data-name="Контур 9" d="M169.716,494.533l2.45,2.309c.027.431-.306.277-.5.282a3.413,3.413,0,0,0-1.5.33,5.706,5.706,0,0,0-2.741,2.045c-1.7,2.362-3.813,3.863-6.919,3.49a4.363,4.363,0,0,0-4.443,2.259c-.3.009-.3-.148-.194-.361.4-1.977,1.243-3.682,3.222-4.438a7.837,7.837,0,0,0,4.827-4.814,13.072,13.072,0,0,1,1.267-2.246c1.481-2.386,2.058-2.383,3.572-.049.178.274.128.325-.126.456-1.8.931-2.684,2.66-3.645,4.316-.061.106-.06-1.159-.088-1.033.141-.046.3,1.34.422,1.266a4.843,4.843,0,0,0,1.763-2.158,3.218,3.218,0,0,1,1.871-1.988c.4-.222.525.187.764.334" transform="translate(-84.076 -312.301)" fill="#b48a35"/>
    <path id="Контур_10" data-name="Контур 10" d="M399.331,178.728c-1.826,3.409-.015,7.806-2.968,10.894a1.01,1.01,0,0,0-.244.611c-.088,2.389-1.14,1.829-2.556.985-1.1-.652-.138-1.136-.1-1.693.018-.233.051-.465.077-.7a4.876,4.876,0,0,1-.578.288c-.682.238-.832,1.285-2.019.886-1.918-.646-1.7-1.446-.339-2.242a10.448,10.448,0,0,0,4.852-6.5c.461-1.573,2.221-2.05,3.62-2.707.176-.083.35-.112.25.178" transform="translate(-268.824 -64.836)" fill="#b48a35"/>
    <path id="Контур_11" data-name="Контур 11" d="M248.6,171.189a14.084,14.084,0,0,0,3.956,4.545,5.946,5.946,0,0,1,1.791,3.306,10.225,10.225,0,0,0,.769,1.835,19.969,19.969,0,0,0,1.142,1.685,14.107,14.107,0,0,1-2.654.865c-.68.088-.576-.853-.927-1.258-.137-.157-.272-.317-.408-.476a2.018,2.018,0,0,0-.1.543,2.261,2.261,0,0,1-1.615,2.72c-.727.253-.894.148-.974-.5a3.074,3.074,0,0,1-.059-.914,11.027,11.027,0,0,0-1.747-8.353c-.817-1.282-.064-2.912.391-4.341.345-.143.23.309.438.343" transform="translate(-156.482 -58.769)" fill="#b48a35"/>
    <path id="Контур_12" data-name="Контур 12" d="M134.578,290.3c1.88.668,3.511,2.045,5.64,2.012.055,0,.165.114.158.128a23.741,23.741,0,0,1-1.306,2.5c-.312.472-.719-.122-1.1-.16a7.332,7.332,0,0,1-1.027-.244c.191.312.309.741.586.917,1.482.947.466,2.032.218,3.068-.121.5-.435.229-.606.07a10.592,10.592,0,0,1-2.038-2.051,5.763,5.763,0,0,0-4.312-2.9c-2.289-.355-3.372-2.033-4.267-3.919a1.229,1.229,0,0,1-.049-.364l1.236.4a11.673,11.673,0,0,0,4.911.437,8.52,8.52,0,0,1,1.953.109" transform="translate(-60.9 -152.463)" fill="#b48a35"/>
    <path id="Контур_13" data-name="Контур 13" d="M133.812,430.792l1.03,2.231a19.511,19.511,0,0,1-2.525-.012,12.171,12.171,0,0,0-6.8,1.356,6.259,6.259,0,0,1-5.207.413,3.582,3.582,0,0,1-.427-.246c.091-.085.17-.221.275-.247,3.5-.852,5.5-3.693,7.852-6.036a4.438,4.438,0,0,1,4.091-1.281c.989.168.746,1.392,1.137,2.1.245.443-.321.472-.575.618-.383.219-.787.4-1.181.6-.1.27.108.236.254.254.288.035.6-.078.864.119.4.15.83-.071,1.217.135" transform="translate(-55.683 -261.162)" fill="#b48a35"/>
    <path id="Контур_14" data-name="Контур 14" d="M392.114,530.171c-.382-1.851,1.274-1.671,2.053-2.274.28-.217.183.352.14.5-.088.31-1.273,5.38,2.255,8.53,1.184,1.057,1.232,2.675,1.109,4.213a1.221,1.221,0,0,1-.167.368c-.1-.085-.231-.151-.289-.258a6.049,6.049,0,0,0-2.948-2.33,12.052,12.052,0,0,1-6.229-7.718c-.289-.926.547-.635.872-.819,1.092-.617,2.24-1.2,2.724.7.032.125.21.212.319.317.059-.456.118-.911.16-1.236" transform="translate(-267.583 -340.956)" fill="#b48a35"/>
    <path id="Контур_15" data-name="Контур 15" d="M487.442,290.329c.684.04,1.661,0,1.859.552s-.814.719-1.284,1.05a11.474,11.474,0,0,0-2.728,2.54,5.983,5.983,0,0,1-3.622,2.46,4.106,4.106,0,0,0-1.969.817c-1.617,1.6-2.161.713-2.595-.925-.4-1.529,1.135-1.024,1.6-1.635.3-.391-.025-.4-.27-.412a7.858,7.858,0,0,0-1.314.005.991.991,0,0,1-1.112-.59c.266-.606-2.025-1.3.062-1.843a7.979,7.979,0,0,1,2.536,0c2.7.855,4.544-1.153,6.731-2.017a6.427,6.427,0,0,1,2.11,0" transform="translate(-336.503 -153.159)" fill="#b48a35"/>
    <path id="Контур_16" data-name="Контур 16" d="M482.788,435.27a7.763,7.763,0,0,1-4.484-1.978c-.7-.609.453-1.57.691-2.4.183-.638.71-.263,1.11-.16s.786.19,1.178.283c-.226-.342-.379-.792-.692-1.008-1.452-1.006-.219-2.021-.04-3.016.051-.284.257-.218.6.363.963,1.631,1.9,3.282,3.71,4.147a4.812,4.812,0,0,0,2.184.464c.61.1,1.231.207,1.852.271a4.935,4.935,0,0,1,2.931,2.181c.155.23.034.45-.172.39-1.528-.444-2.961.122-4.425.363a.427.427,0,0,0-.214.1l.015-.009a9.484,9.484,0,0,1-4.243,0" transform="translate(-338.796 -261.115)" fill="#b48a35"/>
    <circle id="Эллипс_1" data-name="Эллипс 1" cx="30.658" cy="30.658" r="30.658" transform="matrix(0.973, -0.233, 0.233, 0.973, 72.402, 133.952)" fill="none" stroke="#b48a35" stroke-miterlimit="10" stroke-width="1"/>
    <g id="Сгруппировать_2" data-name="Сгруппировать 2" transform="translate(177.314 137.962)">
      <g id="Сгруппировать_6" data-name="Сгруппировать 6" transform="translate(0)">
        <path id="Контур_30" data-name="Контур 30" d="M37.95-176.627v12.52h-.988a15.6,15.6,0,0,0-1.722-5.739,8.958,8.958,0,0,0-3.537-3.39,9.785,9.785,0,0,0-4.752-1.255,6.463,6.463,0,0,0-4.592,1.7,5.158,5.158,0,0,0-1.815,3.857,4.57,4.57,0,0,0,1.148,3.017q1.655,2,7.875,5.339a54.424,54.424,0,0,1,6.927,4.178,10.189,10.189,0,0,1,2.856,3.43,9.038,9.038,0,0,1,1,4.138,9.37,9.37,0,0,1-3.19,7.088,11.552,11.552,0,0,1-8.209,2.977,17.378,17.378,0,0,1-2.963-.24,30.249,30.249,0,0,1-3.43-.974,15.38,15.38,0,0,0-3.3-.841,1.4,1.4,0,0,0-1.054.4,3.189,3.189,0,0,0-.574,1.655h-.988v-12.413h.988a17.545,17.545,0,0,0,1.869,5.833,8.976,8.976,0,0,0,3.59,3.217,11.132,11.132,0,0,0,5.3,1.281,7.536,7.536,0,0,0,5.272-1.762,5.457,5.457,0,0,0,1.935-4.164,5.646,5.646,0,0,0-.734-2.7,8.035,8.035,0,0,0-2.282-2.536,65.453,65.453,0,0,0-5.686-3.4,55.16,55.16,0,0,1-6.607-4.151,11.2,11.2,0,0,1-2.977-3.417A8.477,8.477,0,0,1,16.3-167.1a8.911,8.911,0,0,1,2.99-6.714,10.653,10.653,0,0,1,7.608-2.816,15.264,15.264,0,0,1,6.113,1.415,6.289,6.289,0,0,0,2.109.667,1.59,1.59,0,0,0,1.135-.414,3.3,3.3,0,0,0,.707-1.668Z" transform="translate(-16.3 176.627)" fill="#244061"/>
        <path id="Контур_29" data-name="Контур 29" d="M27.241-176.627a16.417,16.417,0,0,1,12.213,5.352,18.478,18.478,0,0,1,5.166,13.361,19.029,19.029,0,0,1-5.206,13.695,16.79,16.79,0,0,1-12.6,5.446,16.7,16.7,0,0,1-12.56-5.312Q9.169-149.4,9.169-157.834A18.314,18.314,0,0,1,15.042-171.9,17.325,17.325,0,0,1,27.241-176.627Zm-.507,1.949a9.551,9.551,0,0,0-7.795,3.6q-3.657,4.485-3.657,13.134,0,8.863,3.791,13.641a9.367,9.367,0,0,0,7.688,3.631,10.505,10.505,0,0,0,8.422-3.978q3.324-3.978,3.324-12.547,0-9.29-3.657-13.855A9.864,9.864,0,0,0,26.734-174.678Z" transform="translate(20.104 176.627)" fill="#244061"/>
        <path id="Контур_28" data-name="Контур 28" d="M35.467-146.491l.881.187-3.1,9.824H5.221v-.988H6.583a3.64,3.64,0,0,0,3.284-1.495q.561-.854.561-3.951v-23.358q0-3.39-.747-4.245a3.922,3.922,0,0,0-3.1-1.175H5.221v-.988H21.612v.988a10,10,0,0,0-4.044.534,3.265,3.265,0,0,0-1.588,1.415,11.648,11.648,0,0,0-.427,4.084v22.744a7.4,7.4,0,0,0,.427,3.043,1.908,1.908,0,0,0,.988.828,17.33,17.33,0,0,0,4.164.267h2.643a19.148,19.148,0,0,0,5.846-.614,7.613,7.613,0,0,0,3.07-2.176A17.83,17.83,0,0,0,35.467-146.491Z" transform="translate(62.813 173.507)" fill="#244061"/>
        <path id="Контур_27" data-name="Контур 27" d="M22-137.469v.988H6.495v-.988H7.776a3.865,3.865,0,0,0,3.257-1.308q.641-.854.641-4.111v-23.385a11.986,11.986,0,0,0-.347-3.631,2.4,2.4,0,0,0-1.094-1.148,5.059,5.059,0,0,0-2.456-.641H6.495v-.988H22v.988H20.7a3.833,3.833,0,0,0-3.23,1.308q-.667.854-.667,4.111v23.385a11.986,11.986,0,0,0,.347,3.631,2.39,2.39,0,0,0,1.121,1.148,4.91,4.91,0,0,0,2.429.641Z" transform="translate(95.496 173.507)" fill="#244061"/>
        <path id="Контур_26" data-name="Контур 26" d="M37.95-176.627v12.52h-.988a15.6,15.6,0,0,0-1.722-5.739,8.958,8.958,0,0,0-3.537-3.39,9.785,9.785,0,0,0-4.752-1.255,6.463,6.463,0,0,0-4.592,1.7,5.158,5.158,0,0,0-1.815,3.857,4.57,4.57,0,0,0,1.148,3.017q1.655,2,7.875,5.339a54.424,54.424,0,0,1,6.927,4.178,10.189,10.189,0,0,1,2.856,3.43,9.038,9.038,0,0,1,1,4.138,9.37,9.37,0,0,1-3.19,7.088,11.552,11.552,0,0,1-8.209,2.977,17.378,17.378,0,0,1-2.963-.24,30.249,30.249,0,0,1-3.43-.974,15.38,15.38,0,0,0-3.3-.841,1.4,1.4,0,0,0-1.054.4,3.189,3.189,0,0,0-.574,1.655h-.988v-12.413h.988a17.545,17.545,0,0,0,1.869,5.833,8.976,8.976,0,0,0,3.59,3.217,11.132,11.132,0,0,0,5.3,1.281,7.536,7.536,0,0,0,5.272-1.762,5.457,5.457,0,0,0,1.935-4.164,5.646,5.646,0,0,0-.734-2.7,8.035,8.035,0,0,0-2.282-2.536,65.453,65.453,0,0,0-5.686-3.4,55.16,55.16,0,0,1-6.607-4.151,11.2,11.2,0,0,1-2.977-3.417A8.477,8.477,0,0,1,16.3-167.1a8.911,8.911,0,0,1,2.99-6.714,10.653,10.653,0,0,1,7.608-2.816,15.264,15.264,0,0,1,6.113,1.415,6.289,6.289,0,0,0,2.109.667,1.59,1.59,0,0,0,1.135-.414,3.3,3.3,0,0,0,.707-1.668Z" transform="translate(105.942 176.627)" fill="#244061"/>
      </g>
    </g>
    <g id="Сгруппировать_4" data-name="Сгруппировать 4" transform="translate(180.492 190.829)">
      <g id="Сгруппировать_7" data-name="Сгруппировать 7" transform="translate(0 0)">
        <path id="Контур_51" data-name="Контур 51" d="M3.966-27.56H2.658v1.931a1.363,1.363,0,0,0,.145.759.763.763,0,0,0,.623.192h.145v.173H.849v-.173h.192a.909.909,0,0,0,.436-.094.456.456,0,0,0,.227-.244,2.205,2.205,0,0,0,.054-.614v-4.1a2.147,2.147,0,0,0-.059-.619.435.435,0,0,0-.23-.248,1.094,1.094,0,0,0-.476-.084H.849v-.173H3.572v.173H3.427a.961.961,0,0,0-.487.091.585.585,0,0,0-.213.22,1.772,1.772,0,0,0-.068.64V-27.9H3.966a3.129,3.129,0,0,1,1-2.24A3.1,3.1,0,0,1,7.138-31a2.918,2.918,0,0,1,2.123.923,3.2,3.2,0,0,1,.923,2.366A3.428,3.428,0,0,1,9.3-25.346a2.878,2.878,0,0,1-2.242.986,2.947,2.947,0,0,1-1.56-.412,3.106,3.106,0,0,1-1.1-1.146A3.41,3.41,0,0,1,3.966-27.56Zm3.083-3.1a1.729,1.729,0,0,0-1.462.752,3.656,3.656,0,0,0-.553,2.186,4.136,4.136,0,0,0,.518,2.186,1.659,1.659,0,0,0,1.5.846,1.774,1.774,0,0,0,1.507-.743,3.586,3.586,0,0,0,.551-2.158,4.189,4.189,0,0,0-.518-2.252A1.709,1.709,0,0,0,7.049-30.662Z" transform="translate(-0.849 31.004)" fill="gray"/>
        <path id="Контур_50" data-name="Контур 50" d="M2.569-26.932v1.851a1.3,1.3,0,0,0,.131.745.674.674,0,0,0,.539.206h.244v.173H.76v-.173H1a.639.639,0,0,0,.576-.262,1.545,1.545,0,0,0,.094-.689v-4.1a1.338,1.338,0,0,0-.127-.745A.688.688,0,0,0,1-30.137H.76v-.173H3.089a4.127,4.127,0,0,1,1.345.176,1.851,1.851,0,0,1,.829.593,1.524,1.524,0,0,1,.337.989,1.666,1.666,0,0,1-.513,1.265,2.023,2.023,0,0,1-1.45.487,4.092,4.092,0,0,1-.5-.033Q2.873-26.867,2.569-26.932Zm0-.267q.248.047.44.07a2.773,2.773,0,0,0,.328.023,1.115,1.115,0,0,0,.841-.377,1.371,1.371,0,0,0,.354-.977,1.757,1.757,0,0,0-.169-.766,1.165,1.165,0,0,0-.478-.53,1.4,1.4,0,0,0-.7-.176,2.773,2.773,0,0,0-.614.089Z" transform="translate(9.19 30.456)" fill="gray"/>
        <path id="Контур_49" data-name="Контур 49" d="M5.593-29.261q0-.572-.185-.724a1.262,1.262,0,0,0-.747-.152v-.173H7.411v.173a1.18,1.18,0,0,0-.754.187,1.256,1.256,0,0,0-.164.8v4.039a1.256,1.256,0,0,0,.164.8,1.18,1.18,0,0,0,.754.187v.173H4.66v-.173a1.2,1.2,0,0,0,.768-.19,1.257,1.257,0,0,0,.164-.794V-28.76L2.645-24.983a2.013,2.013,0,0,0,.054.546.391.391,0,0,0,.23.218,1.862,1.862,0,0,0,.64.089v.173H.827v-.173a1.18,1.18,0,0,0,.754-.187,1.256,1.256,0,0,0,.164-.8v-4.039a1.256,1.256,0,0,0-.164-.8,1.18,1.18,0,0,0-.754-.187v-.173H3.568v.173a1.19,1.19,0,0,0-.759.187,1.256,1.256,0,0,0-.164.8v3.66Z" transform="translate(14.422 30.456)" fill="gray"/>
        <path id="Контур_48" data-name="Контур 48" d="M1.589-30.311H6.832v.173a1.18,1.18,0,0,0-.754.187,1.256,1.256,0,0,0-.164.8v3.519a3.9,3.9,0,0,0,.117,1.263q.117.241.759.241v2H6.631a2.816,2.816,0,0,0-.452-1.118,1.539,1.539,0,0,0-.708-.567,2.8,2.8,0,0,0-.949-.143H2.9a1.96,1.96,0,0,0-1.563.576,2.428,2.428,0,0,0-.6,1.251H.581v-2a1.564,1.564,0,0,0,1.228-.9,5.973,5.973,0,0,0,.656-2.059,14.066,14.066,0,0,0,.183-2,1.534,1.534,0,0,0-.117-.689.534.534,0,0,0-.279-.276,2.778,2.778,0,0,0-.663-.075Zm1.528.347a18.584,18.584,0,0,1-.445,3.9A4.7,4.7,0,0,1,1.79-24.3H4.142a1.456,1.456,0,0,0,.752-.11q.124-.11.124-.715v-4.836Z" transform="translate(21.652 30.456)" fill="gray"/>
        <path id="Контур_47" data-name="Контур 47" d="M5.593-29.261q0-.572-.185-.724a1.262,1.262,0,0,0-.747-.152v-.173H7.411v.173a1.18,1.18,0,0,0-.754.187,1.256,1.256,0,0,0-.164.8v4.039a1.256,1.256,0,0,0,.164.8,1.18,1.18,0,0,0,.754.187v.173H4.66v-.173a1.2,1.2,0,0,0,.768-.19,1.257,1.257,0,0,0,.164-.794V-28.76L2.645-24.983a2.013,2.013,0,0,0,.054.546.391.391,0,0,0,.23.218,1.862,1.862,0,0,0,.64.089v.173H.827v-.173a1.18,1.18,0,0,0,.754-.187,1.256,1.256,0,0,0,.164-.8v-4.039a1.256,1.256,0,0,0-.164-.8,1.18,1.18,0,0,0-.754-.187v-.173H3.568v.173a1.19,1.19,0,0,0-.759.187,1.256,1.256,0,0,0-.164.8v3.66Z" transform="translate(28.194 30.456)" fill="gray"/>
        <path id="Контур_46" data-name="Контур 46" d="M4.139-27.218V-29.13a2.205,2.205,0,0,0-.066-.691.45.45,0,0,0-.267-.232,1.723,1.723,0,0,0-.586-.084v-.173H5.957v.173a1.715,1.715,0,0,0-.59.084.443.443,0,0,0-.262.241,2.214,2.214,0,0,0-.066.682v3.992a1.95,1.95,0,0,0,.077.7.452.452,0,0,0,.262.223,2.019,2.019,0,0,0,.579.082v.173H3.221v-.173a1.757,1.757,0,0,0,.6-.087.463.463,0,0,0,.253-.227,2.064,2.064,0,0,0,.07-.694v-1.706a5,5,0,0,1-1.926.53,1.676,1.676,0,0,1-.907-.22.967.967,0,0,1-.436-.48,3.957,3.957,0,0,1-.087-1.038V-29.13a2.162,2.162,0,0,0-.068-.689.447.447,0,0,0-.272-.237,1.76,1.76,0,0,0-.579-.082v-.173H2.612v.173A1.628,1.628,0,0,0,2-30.048a.427.427,0,0,0-.265.265,2.609,2.609,0,0,0-.054.654v.881a3.794,3.794,0,0,0,.07.879.659.659,0,0,0,.286.4,1,1,0,0,0,.548.138A3.8,3.8,0,0,0,4.139-27.218Z" transform="translate(35.99 30.456)" fill="gray"/>
        <path id="Контур_45" data-name="Контур 45" d="M2.748-29.964v2.512h1.4a1.138,1.138,0,0,0,.726-.164,1.055,1.055,0,0,0,.272-.759h.173v2.212H5.142a2.418,2.418,0,0,0-.131-.6.587.587,0,0,0-.276-.258,1.412,1.412,0,0,0-.59-.094h-1.4v2.095a1.946,1.946,0,0,0,.037.513.3.3,0,0,0,.131.145.8.8,0,0,0,.356.054H4.35a2.92,2.92,0,0,0,.783-.075,1.167,1.167,0,0,0,.469-.3,3.606,3.606,0,0,0,.6-.876h.187l-.548,1.593H.939v-.173h.225a.891.891,0,0,0,.426-.108.394.394,0,0,0,.2-.225,2.205,2.205,0,0,0,.054-.614V-29.2a1.366,1.366,0,0,0-.122-.745.726.726,0,0,0-.562-.187H.939v-.173h4.9l.07,1.392H5.723a2.2,2.2,0,0,0-.218-.689.748.748,0,0,0-.354-.286,2.122,2.122,0,0,0-.661-.07Z" transform="translate(41.588 30.456)" fill="gray"/>
        <path id="Контур_44" data-name="Контур 44" d="M7.085-31l.145,2.16H7.085a2.719,2.719,0,0,0-.829-1.4,2.02,2.02,0,0,0-1.293-.426,2.1,2.1,0,0,0-1.143.321,2.123,2.123,0,0,0-.8,1.024,4.56,4.56,0,0,0-.293,1.748A3.711,3.711,0,0,0,3-26.079a2.071,2.071,0,0,0,.832.97,2.392,2.392,0,0,0,1.268.337,2.2,2.2,0,0,0,1.092-.265,3.6,3.6,0,0,0,1.04-1.052l.145.094A3.336,3.336,0,0,1,6.26-24.753a2.823,2.823,0,0,1-1.514.394A2.865,2.865,0,0,1,2.3-25.531a3.349,3.349,0,0,1-.647-2.052,3.645,3.645,0,0,1,.426-1.748,3.085,3.085,0,0,1,1.174-1.235A3.171,3.171,0,0,1,4.887-31a2.993,2.993,0,0,1,1.359.337.737.737,0,0,0,.281.1.309.309,0,0,0,.22-.089A.73.73,0,0,0,6.921-31Z" transform="translate(46.898 31.004)" fill="gray"/>
        <path id="Контур_43" data-name="Контур 43" d="M7.022-24.413v.173H5.382q-.267-.426-1.125-1.61a9.171,9.171,0,0,0-1.045-1.312,1.031,1.031,0,0,0-.567-.134v1.9a1.271,1.271,0,0,0,.162.8,1.178,1.178,0,0,0,.757.187v.173H.827v-.173a1.2,1.2,0,0,0,.752-.185,1.241,1.241,0,0,0,.166-.8v-4.039a1.256,1.256,0,0,0-.164-.8,1.18,1.18,0,0,0-.754-.187v-.173H3.564v.173a1.178,1.178,0,0,0-.757.187,1.271,1.271,0,0,0-.162.8v1.771a2.739,2.739,0,0,0,.708-.068,1.279,1.279,0,0,0,.443-.288,1.9,1.9,0,0,0,.389-.485,7.348,7.348,0,0,0,.368-.855,5.147,5.147,0,0,1,.344-.776,1.079,1.079,0,0,1,.429-.375,1.478,1.478,0,0,1,.7-.157q.722,0,.722.506a.407.407,0,0,1-.143.309.468.468,0,0,1-.326.131,1.222,1.222,0,0,1-.44-.15,1.06,1.06,0,0,0-.38-.136.31.31,0,0,0-.258.157,4.663,4.663,0,0,0-.342.8,2.548,2.548,0,0,1-1.148,1.523q.426.075,1.181,1.167a14.264,14.264,0,0,0,1.176,1.546A1.312,1.312,0,0,0,7.022-24.413Z" transform="translate(54.007 30.739)" fill="gray"/>
        <path id="Контур_42" data-name="Контур 42" d="M4.673-26.632H2.213l-.431,1a1.588,1.588,0,0,0-.159.553.321.321,0,0,0,.138.255,1.208,1.208,0,0,0,.6.143v.173h-2v-.173a1.078,1.078,0,0,0,.515-.183,2.87,2.87,0,0,0,.53-.914L3.638-31H3.8l2.212,5.286a2.409,2.409,0,0,0,.485.827.989.989,0,0,0,.607.213v.173H4.6v-.173a.94.94,0,0,0,.513-.127.326.326,0,0,0,.134-.262,1.943,1.943,0,0,0-.187-.651Zm-.131-.347L3.464-29.546,2.359-26.979Z" transform="translate(61.114 31.004)" fill="gray"/>
        <path id="Контур_41" data-name="Контур 41" d="M-.4-23.957h1.7l2.151-2.971q.239.009.389.009l.131,0,.145-.007v1.846a1.3,1.3,0,0,1-.131.745.668.668,0,0,1-.534.206H3.2v.173H5.919v-.173H5.68a.639.639,0,0,1-.576-.262,1.479,1.479,0,0,1-.1-.689v-4.1a1.3,1.3,0,0,1,.131-.745.688.688,0,0,1,.544-.206h.239v-.173H3.6a5.5,5.5,0,0,0-1.492.148,1.707,1.707,0,0,0-.815.544,1.414,1.414,0,0,0-.335.944,1.484,1.484,0,0,0,.382,1.017,2.157,2.157,0,0,0,1.183.609L1.214-25.227a3.26,3.26,0,0,1-.773.834A1.948,1.948,0,0,1-.4-24.13ZM4.11-27.223l-.155,0-.108,0a2.065,2.065,0,0,1-1.371-.394,1.26,1.26,0,0,1-.462-1,1.309,1.309,0,0,1,.373-.968,1.333,1.333,0,0,1,.986-.373,4.135,4.135,0,0,1,.736.089Z" transform="translate(68.461 30.456)" fill="gray"/>
        <path id="Контур_40" data-name="Контур 40" transform="translate(74.879 6.499)" fill="gray"/>
        <path id="Контур_39" data-name="Контур 39" transform="translate(77.231 6.499)" fill="gray"/>
        <path id="Контур_38" data-name="Контур 38" d="M7.022-24.413v.173H5.382q-.267-.426-1.125-1.61a9.171,9.171,0,0,0-1.045-1.312,1.031,1.031,0,0,0-.567-.134v1.9a1.271,1.271,0,0,0,.162.8,1.178,1.178,0,0,0,.757.187v.173H.827v-.173a1.2,1.2,0,0,0,.752-.185,1.241,1.241,0,0,0,.166-.8v-4.039a1.256,1.256,0,0,0-.164-.8,1.18,1.18,0,0,0-.754-.187v-.173H3.564v.173a1.178,1.178,0,0,0-.757.187,1.271,1.271,0,0,0-.162.8v1.771a2.739,2.739,0,0,0,.708-.068,1.279,1.279,0,0,0,.443-.288,1.9,1.9,0,0,0,.389-.485,7.348,7.348,0,0,0,.368-.855,5.147,5.147,0,0,1,.344-.776,1.079,1.079,0,0,1,.429-.375,1.478,1.478,0,0,1,.7-.157q.722,0,.722.506a.407.407,0,0,1-.143.309.468.468,0,0,1-.326.131,1.222,1.222,0,0,1-.44-.15,1.06,1.06,0,0,0-.38-.136.31.31,0,0,0-.258.157,4.663,4.663,0,0,0-.342.8,2.548,2.548,0,0,1-1.148,1.523q.426.075,1.181,1.167a14.264,14.264,0,0,0,1.176,1.546A1.312,1.312,0,0,0,7.022-24.413Z" transform="translate(78.929 30.739)" fill="gray"/>
        <path id="Контур_37" data-name="Контур 37" d="M4.782-31a2.882,2.882,0,0,1,2.144.94,3.243,3.243,0,0,1,.907,2.345,3.34,3.34,0,0,1-.914,2.4,2.947,2.947,0,0,1-2.212.956,2.931,2.931,0,0,1-2.2-.932A3.346,3.346,0,0,1,1.609-27.7,3.215,3.215,0,0,1,2.64-30.174,3.041,3.041,0,0,1,4.782-31Zm-.089.342a1.677,1.677,0,0,0-1.368.633,3.577,3.577,0,0,0-.642,2.305,3.774,3.774,0,0,0,.665,2.394,1.644,1.644,0,0,0,1.35.637,1.844,1.844,0,0,0,1.478-.7,3.4,3.4,0,0,0,.583-2.2,3.846,3.846,0,0,0-.642-2.432A1.731,1.731,0,0,0,4.693-30.662Z" transform="translate(84.767 31.004)" fill="gray"/>
        <path id="Контур_33" data-name="Контур 33" d="M4.527-23.957,2.072-29.3v4.245a1.3,1.3,0,0,0,.127.731.7.7,0,0,0,.548.2h.225v.173H.76v-.173H.985a.646.646,0,0,0,.572-.244,1.422,1.422,0,0,0,.1-.684V-29.21a1.452,1.452,0,0,0-.094-.609.52.52,0,0,0-.241-.227,1.294,1.294,0,0,0-.565-.091v-.173h1.8l2.305,4.972,2.268-4.972h1.8v.173h-.22a.651.651,0,0,0-.576.244,1.422,1.422,0,0,0-.1.684v4.152a1.261,1.261,0,0,0,.131.731.7.7,0,0,0,.548.2h.22v.173h-2.7v-.173h.225a.638.638,0,0,0,.572-.244,1.422,1.422,0,0,0,.1-.684V-29.3L4.682-23.957Z" transform="translate(92.765 30.456)" fill="gray"/>
        <path id="Контур_34" data-name="Контур 34" d="M5.593-29.964H2.645v4.85a1.271,1.271,0,0,0,.162.8,1.178,1.178,0,0,0,.757.187v.173H.827v-.173a1.18,1.18,0,0,0,.754-.187,1.256,1.256,0,0,0,.164-.8v-4.039a1.256,1.256,0,0,0-.164-.8,1.18,1.18,0,0,0-.754-.187v-.173H7.411v.173a1.18,1.18,0,0,0-.754.187,1.256,1.256,0,0,0-.164.8v4.039a1.256,1.256,0,0,0,.164.8,1.18,1.18,0,0,0,.754.187v.173H4.679v-.173a1.183,1.183,0,0,0,.75-.185,1.255,1.255,0,0,0,.164-.8Z" transform="translate(101.219 30.456)" fill="gray"/>
        <path id="Контур_35" data-name="Контур 35" d="M4.673-26.632H2.213l-.431,1a1.588,1.588,0,0,0-.159.553.321.321,0,0,0,.138.255,1.208,1.208,0,0,0,.6.143v.173h-2v-.173a1.078,1.078,0,0,0,.515-.183,2.87,2.87,0,0,0,.53-.914L3.638-31H3.8l2.212,5.286a2.409,2.409,0,0,0,.485.827.989.989,0,0,0,.607.213v.173H4.6v-.173a.94.94,0,0,0,.513-.127.326.326,0,0,0,.134-.262,1.943,1.943,0,0,0-.187-.651Zm-.131-.347L3.464-29.546,2.359-26.979Z" transform="translate(108.917 31.004)" fill="gray"/>
        <path id="Контур_36" data-name="Контур 36" d="M2.591-27.363H5.543v-1.818a2.127,2.127,0,0,0-.061-.642.42.42,0,0,0-.2-.2.862.862,0,0,0-.426-.112H4.634v-.173H7.352v.173H7.127a.891.891,0,0,0-.426.108.394.394,0,0,0-.2.227,2.259,2.259,0,0,0-.054.621v4.1a2.1,2.1,0,0,0,.061.637.422.422,0,0,0,.192.2.888.888,0,0,0,.431.112h.225v.173H4.634v-.173h.225a.673.673,0,0,0,.567-.23,1.377,1.377,0,0,0,.117-.722v-1.935H2.591v1.935a2.1,2.1,0,0,0,.061.637.42.42,0,0,0,.2.2.862.862,0,0,0,.426.112H3.5v.173H.782v-.173h.225a.678.678,0,0,0,.572-.23,1.427,1.427,0,0,0,.112-.722v-4.1a2.127,2.127,0,0,0-.061-.642.422.422,0,0,0-.192-.2.888.888,0,0,0-.431-.112H.782v-.173H3.5v.173h-.23a.891.891,0,0,0-.426.108.406.406,0,0,0-.2.227,2.169,2.169,0,0,0-.056.621Z" transform="translate(115.327 30.456)" fill="gray"/>
        <path id="Контур_32" data-name="Контур 32" d="M5.593-29.261q0-.572-.185-.724a1.262,1.262,0,0,0-.747-.152v-.173H7.411v.173a1.18,1.18,0,0,0-.754.187,1.256,1.256,0,0,0-.164.8v4.039a1.256,1.256,0,0,0,.164.8,1.18,1.18,0,0,0,.754.187v.173H4.66v-.173a1.2,1.2,0,0,0,.768-.19,1.257,1.257,0,0,0,.164-.794V-28.76L2.645-24.983a2.013,2.013,0,0,0,.054.546.391.391,0,0,0,.23.218,1.862,1.862,0,0,0,.64.089v.173H.827v-.173a1.18,1.18,0,0,0,.754-.187,1.256,1.256,0,0,0,.164-.8v-4.039a1.256,1.256,0,0,0-.164-.8,1.18,1.18,0,0,0-.754-.187v-.173H3.568v.173a1.19,1.19,0,0,0-.759.187,1.256,1.256,0,0,0-.164.8v3.66Z" transform="translate(122.328 30.456)" fill="gray"/>
        <path id="Контур_31" data-name="Контур 31" d="M-.4-23.957h1.7l2.151-2.971q.239.009.389.009l.131,0,.145-.007v1.846a1.3,1.3,0,0,1-.131.745.668.668,0,0,1-.534.206H3.2v.173H5.919v-.173H5.68a.639.639,0,0,1-.576-.262,1.479,1.479,0,0,1-.1-.689v-4.1a1.3,1.3,0,0,1,.131-.745.688.688,0,0,1,.544-.206h.239v-.173H3.6a5.5,5.5,0,0,0-1.492.148,1.707,1.707,0,0,0-.815.544,1.414,1.414,0,0,0-.335.944,1.484,1.484,0,0,0,.382,1.017,2.157,2.157,0,0,0,1.183.609L1.214-25.227a3.26,3.26,0,0,1-.773.834A1.948,1.948,0,0,1-.4-24.13ZM4.11-27.223l-.155,0-.108,0a2.065,2.065,0,0,1-1.371-.394,1.26,1.26,0,0,1-.462-1,1.309,1.309,0,0,1,.373-.968,1.333,1.333,0,0,1,.986-.373,4.135,4.135,0,0,1,.736.089Z" transform="translate(130.626 30.456)" fill="gray"/>
      </g>
    </g>
    <g id="Сгруппировать_9" data-name="Сгруппировать 9">
      <path id="Контур_17" data-name="Контур 17" d="M234.938,327.372a6.364,6.364,0,0,1-3.921-.938,5.291,5.291,0,0,1-2.376-5.149,5.706,5.706,0,0,1,4.086-5.072,8.266,8.266,0,0,1,7.354.99c1.5.906,2.9,1.978,4.411,2.857a18.26,18.26,0,0,0,3.871,1.877v3.543a5.651,5.651,0,0,1-3.709-1.3c-1.474-1.215-2.9-2.493-4.355-3.727a6.857,6.857,0,0,0-5.452-1.907c-2.944.4-3.771,3.411-2.362,5.559a2.626,2.626,0,0,0,3.321.677c.311-.206.441-.671.694-.984a1.318,1.318,0,0,1,.621-.5.709.709,0,0,1,.894.54c.412,1.223.087,2.209-1.208,3.257.406.815.817,1.651,1.238,2.482,1.654,3.263,3.321,6.521,4.957,9.793.275.551.782,1.317.5,2.008a5.446,5.446,0,0,1-1.212,1.984,8.636,8.636,0,0,1-6.771,2.3,8.248,8.248,0,0,1-5.733-2.168,6.2,6.2,0,0,1-1.309-2.039,2.165,2.165,0,0,1,.087-1.456c2.047-4.06,4.132-8.1,6.2-12.15a4.667,4.667,0,0,0,.17-.477m5.135,12.908c-.025-4.778-2.317-8.8-4.134-13.044-1.316,2.933-2.514,5.872-3.642,8.838a8.36,8.36,0,0,0-.581,4.205Z" transform="translate(-141.447 -173.314)" fill="#244061"/>
      <path id="Контур_18" data-name="Контур 18" d="M325.974,348.852l3.693-.012v-3.557c-.048,0-3.693,0-3.693,0v3.565Zm3.542-3.444.014,3.3h-3.4c0-1.171-.009-2.255-.009-3.293l3.4-.005" transform="translate(-218.576 -196.661)" fill="#244061"/>
      <path id="Контур_19" data-name="Контур 19" d="M366.1,339.43q-2.861-5.362-5.724-10.723c-.143-.267-.282-.536-.448-.854.43-.07.762-.133,1.1-.178a5.479,5.479,0,0,0,4.474-7.229,6.708,6.708,0,0,0-7.719-4.192,13.382,13.382,0,0,0-5.273,2.487,26.123,26.123,0,0,1-6.162,3.4c-.109.039-.394.105-.394.105v3.317s0,.106,0,.106v.12c.213,0,.75-.069.9-.087a6.083,6.083,0,0,0,3.311-1.474c1.2-1.056,2.424-2.08,3.612-3.146a8.2,8.2,0,0,1,4.447-2.162,3.616,3.616,0,0,1,3.729,1.475,3.479,3.479,0,0,1,.023,3.926,2.479,2.479,0,0,1-2.494,1.155A1.725,1.725,0,0,1,357.8,324a1.692,1.692,0,0,0-.2-.376c-.636.039-1.169.072-1.314.847a3.258,3.258,0,0,0-.006,1.314l.008.035a2.589,2.589,0,0,0,1.613,1.755c-2.114,4.092-4.171,8.147-6.311,12.16a2.638,2.638,0,0,0,0,2.607,6.236,6.236,0,0,0,1.139,1.478,8.785,8.785,0,0,0,6.371,2.155,8.56,8.56,0,0,0,6.5-2.615,3.058,3.058,0,0,0,.5-3.928m-2.99,1.155h-8.5a8.314,8.314,0,0,1,.283-3.445c.6-1.94,1.345-3.836,2.078-5.732.413-1.07.911-2.108,1.391-3.151a3.335,3.335,0,0,1,.433-.577,2.446,2.446,0,0,1,.48.545c.81,1.811,1.635,3.617,2.378,5.455a16.2,16.2,0,0,1,1.521,5.886,5.148,5.148,0,0,1-.066,1.019" transform="translate(-234.364 -173.62)" fill="#244061"/>
      <path id="Контур_20" data-name="Контур 20" d="M305.075,365.286c0,.094,0-.052,0,.241q.012,12.1,0,24.194v1.019h6.232v3.718H294V390.79h6.076v-1q0-12.137,0-24.273c0-.288,0-.408,0-.408h5v.18h-4.869c0,8.461.008,25.5.008,25.5l.488,0s0-.473,0-.755c0-.161,0-.31,0-.467V365.791l3.692,0v.328c-.024,7.937,0,15.815,0,23.753v.867c.1-.006.413,0,.511,0V365.286s.167,0,.167,0m-10.952,29.042h17v-3.383h-17Z" transform="translate(-193.305 -212.329)" fill="#244061"/>
      <path id="Контур_21" data-name="Контур 21" d="M318.657,263.332a4.508,4.508,0,0,1-4-5.523,4.114,4.114,0,1,1,8.146,1.148,4.476,4.476,0,0,1-3.066,4.215,3.138,3.138,0,0,1-1.08.16m-2.847-3.966a2.876,2.876,0,0,0,2.929,2.931,2.914,2.914,0,0,0,2.9-2.9,2.945,2.945,0,0,0-2.91-2.984,2.894,2.894,0,0,0-2.918,2.955" transform="translate(-209.539 -124.675)" fill="#244061"/>
      <path id="Контур_22" data-name="Контур 22" d="M329.883,303.159a1.816,1.816,0,0,0,1.8,0v7.769h-1.8Z" transform="translate(-221.665 -163.368)" fill="#244061"/>
      <path id="Контур_23" data-name="Контур 23" d="M331.149,347.957V350.4h-2.538v-2.446h2.538" transform="translate(-220.66 -198.775)" fill="#244061"/>
      <path id="Контур_24" data-name="Контур 24" d="M330.129,299.165c.042-.019,0,6.212,0,9.158h-2.982v-8.9c0-.143.165-.032.165-.032v8.773s1.993.013,2.665.013v-8.786a2.647,2.647,0,0,1-2.83-.1v-.128a2.821,2.821,0,0,0,2.982,0" transform="translate(-219.503 -160.211)" fill="#244061"/>
      <rect id="Прямоугольник_3" data-name="Прямоугольник 3" width="15.719" height="2.226" transform="translate(101.458 179.199)" fill="#244061"/>
    </g>
    <path id="Контур_25" data-name="Контур 25" d="M327.147,308.026v-8.659c0-.172.165.077.165.077" transform="translate(-219.503 -160.323)" fill="#244061"/>
  </g>
</svg>
