<svg xmlns="http://www.w3.org/2000/svg" width="676.993" height="786.334" viewBox="0 0 676.993 786.334">
  <g id="Сгруппировать_10" data-name="Сгруппировать 10" transform="translate(-86.942 -129.528)">
    <path id="Контур_17" data-name="Контур 17" d="M326.3,489.575c-21.9.674-41.435-2.4-58.617-14.027-27.277-18.448-38.348-45.376-35.525-76.968,3.4-38.022,25.807-63.089,61.077-75.827,38.846-14.03,75.643-5.929,109.932,14.8,22.4,13.541,43.33,29.567,65.947,42.713,18.815,10.934,46.282,26.182,57.874,28.063v52.966c-21.523-.379-39.16-5.938-55.443-19.363-22.036-18.169-43.3-37.264-65.107-55.715-23.487-19.871-50.055-32.8-81.509-28.514-44.011,6-56.37,51-35.3,83.1,9.589,14.619,35.161,19.733,49.652,10.125,4.651-3.084,6.587-10.029,10.382-14.707,2.5-3.074,5.791-6.777,9.282-7.492,5.96-1.219,10.908.749,13.369,8.066,6.155,18.28,1.3,33.026-18.06,48.7,6.071,12.187,12.209,24.682,18.5,37.1,24.722,48.786,49.642,97.476,74.1,146.4,4.115,8.236,11.692,19.683,7.468,30.016-4.927,12.052-9.207,20.686-18.113,29.658-27.665,27.856-63.289,35.584-101.224,34.315-32.114-1.072-62.233-9.439-85.7-32.4-9.094-8.9-14.262-18.665-19.561-30.482-2.275-5.077-1.5-16.2,1.3-21.761,30.6-60.7,61.767-121.114,92.735-181.627.852-1.663,1.282-3.541,2.541-7.132M403.06,682.543c-.37-71.424-34.637-131.608-61.8-194.988-19.68,43.848-37.586,87.786-54.443,132.123-7.493,19.7-11.824,40.346-8.684,62.865Z" transform="translate(-141.447 6.636)" fill="#efefef"/>
    <path id="Контур_18" data-name="Контур 18" d="M325.974,398.65c20.031-.069,38.219-.129,55.213-.182V345.3c-.723-.053-55.213.056-55.213.056v53.3Zm52.951-51.482.207,49.3H328.256c0-17.5-.138-33.716-.138-49.222l50.808-.075" transform="translate(66.778 69.665)" fill="#efefef"/>
    <path id="Контур_19" data-name="Контур 19" d="M647.195,664.451q-42.771-80.155-85.57-160.3c-2.134-4-4.209-8.016-6.7-12.77,6.424-1.054,11.391-1.981,16.393-2.667,62.292-8.577,80.049-69.088,66.877-108.062-15.468-45.762-64.524-71.932-115.4-62.671-29.764,5.421-54.749,20.281-78.82,37.178-28.893,20.285-58.629,38.784-92.12,50.77-1.627.58-5.892,1.57-5.892,1.57V457.08c-.04,0,.038,1.589,0,1.589v1.8c3.178-.006,11.219-1.034,13.51-1.3a90.936,90.936,0,0,0,49.5-22.04c17.906-15.785,36.238-31.09,54-47.032,19.144-17.185,40.945-28.959,66.482-32.325,22.278-2.933,42.441,2.513,55.743,22.043,12.967,19.051,11.563,39.345.345,58.689-8.121,14-21.84,18.154-37.289,17.274-14.013-.8-21.873-8.784-25.176-22.037-.517-2.074-2.041-3.9-2.981-5.628-9.514.579-17.471,1.075-19.648,12.667a48.7,48.7,0,0,0-.094,19.642l.125.529c2.735,11.5,10.718,20.194,24.111,26.239-31.6,61.168-62.358,121.8-94.338,181.777-7.033,13.19-6.7,27.276-.01,38.977a93.218,93.218,0,0,0,17.029,22.1c26.812,24.779,59.842,32.695,95.234,32.221,37.273-.491,70.964-10.846,97.165-39.09,17.182-18.523,19.157-36.916,7.524-58.717m-44.7,17.266H475.468c-3.011-9.1-.463-36.279,4.225-51.5,8.931-29,20.112-57.345,31.061-85.693,6.174-16,13.616-31.513,20.793-47.109,1.466-3.191,4.283-5.763,6.474-8.621,2.438,2.692,5.766,4.992,7.173,8.147,12.1,27.073,24.44,54.064,35.555,81.547,11.416,28.23,22.422,56.863,22.741,87.993.041,3.835,0,11.049-.993,15.239" transform="translate(109.402 7.461)" fill="#efefef"/>
    <path id="Контур_20" data-name="Контур 20" d="M459.555,367.8c0,1.4,0-.78,0,3.607q.174,180.839,0,361.68v15.236h93.16V803.9H294V749.063h90.826v-15q0-181.43-.022-362.858c0-4.306.022-6.1.022-6.1h74.727V367.8H386.767c-.007,126.488.126,381.24.126,381.24l7.3.038s.072-7.076,0-11.284c-.041-2.414.022-4.641.022-6.989V375.354l55.192.025v4.91c-.361,118.654-.047,236.423,0,355.083v12.955c1.476-.084,6.167.025,7.643-.056V367.8s2.5.06,2.5,0M295.825,801.955h254.2V751.389h-254.2Z" transform="translate(-1.445 111.964)" fill="#efefef"/>
    <path id="Контур_21" data-name="Контур 21" d="M376.074,390.665c-38.752-.752-69.246-42.453-59.8-82.568,7.245-30.789,30.63-52.81,57.188-53.851,36.1-1.416,67.307,32.889,64.593,71.011-2.228,31.278-19.163,54.762-45.841,63.01a46.9,46.9,0,0,1-16.139,2.4m-42.566-59.281c.038,24.891,19.119,43.989,43.788,43.822a43.555,43.555,0,0,0,43.334-43.377c.257-24.409-19.332-44.5-43.5-44.615-24.481-.116-43.66,19.3-43.622,44.171" transform="translate(42.381 -124.675)" fill="#efefef"/>
    <path id="Контур_22" data-name="Контур 22" d="M329.883,303.159c9.533,4.626,17.508,4.889,26.9,0V419.3h-26.9Z" transform="translate(75.118 -20.216)" fill="#efefef"/>
    <path id="Контур_23" data-name="Контур 23" d="M366.545,347.957v36.571H328.611V347.957h37.934" transform="translate(72.404 75.372)" fill="#efefef"/>
    <path id="Контур_24" data-name="Контур 24" d="M371.728,299.165c.624-.279,0,92.866,0,136.9l-44.581,0V303.02c0-2.143,2.473-.476,2.473-.476V433.694s29.8.194,39.836.194V302.543c-15.443,7.63-25.665,7.317-42.309-1.457v-1.921c18.822,8.4,25.634,8.6,44.581,0" transform="translate(69.281 -28.739)" fill="#efefef"/>
    <rect id="Прямоугольник_3" data-name="Прямоугольник 3" width="234.979" height="33.274" transform="translate(303.941 872.055)" fill="#efefef"/>
  </g>
</svg>
